<?xml version="1.0" encoding="UTF-8" standalone="no"?>
<!-- Generator: Gravit.io -->
<svg xmlns="http://www.w3.org/2000/svg" xmlns:xlink="http://www.w3.org/1999/xlink" style="isolation:isolate" viewBox="488.08 159.125 231.92 210.875" width="231.92pt" height="210.875pt"><defs><clipPath id="_clipPath_xtfTwbKowblE84KQEUYjdaPfLIeME5mS"><rect x="488.08" y="159.125" width="231.92" height="210.875"/></clipPath></defs><g clip-path="url(#_clipPath_xtfTwbKowblE84KQEUYjdaPfLIeME5mS)"><path d=" M 675.516 359.49 C 666.117 358.098 655.592 356.682 644.516 355.223 C 638.926 326.775 646.152 297.77 632.39 297.689 C 624.43 297.643 621.698 326.502 626.146 352.815 C 615.5 351.416 604.633 349.974 593.898 348.466 C 593.497 346.13 592.766 343.157 591.68 339.563 C 582.873 310.426 594.307 277.796 585.139 273.996 C 579.698 271.742 576.302 309.429 581.126 333.262 C 582.221 338.674 583.817 343.455 585.528 347.264 C 571.683 345.266 558.25 343.142 546.033 340.86 C 529.867 307.068 560.872 260.804 539.291 259.99 C 526.8 259.519 514.112 306.262 520.916 335.432 C 503.336 330.949 491.529 325.876 490 320 Q 479.109 278.154 530 210 Q 512 196 490 190 C 493.333 187.302 495.873 183.492 500 180 Q 518.095 180.952 540 190 Q 616.598 153.926 640 160 C 648.013 162.08 655.184 165.574 661.598 170.215 C 643.506 176.11 627.76 184.555 630.197 188.041 C 634.536 194.248 650.649 184.268 670.76 178.048 C 679.554 186.865 686.667 198.059 692.438 210.597 C 675.947 208.093 652.496 213.933 652.385 220.223 C 652.179 231.891 679.495 215.774 698.266 224.922 C 701.859 234.889 704.777 245.392 707.161 256.006 C 694.604 257.298 683.324 261.514 681.971 266.737 C 679.243 277.261 694.541 271.951 710.273 271.627 C 712.205 282.454 713.65 293.18 714.751 303.346 C 707.912 302.178 701.985 302.495 698.949 304.829 C 689.699 311.942 703.34 314.701 716.371 320.55 C 718.456 346.084 718.67 365.558 720 370 C 717.81 367.456 708.563 365.029 694.807 362.589 C 683.701 349.105 686.643 324.497 675.387 331.106 C 670.321 334.08 670.946 347.488 675.516 359.49 Z " fill-rule="evenodd" fill="rgb(255,255,255)"/></g></svg>